<?xml version="1.0" standalone="no"?>
<!DOCTYPE svg PUBLIC "-//W3C//DTD SVG 20010904//EN"
 "http://www.w3.org/TR/2001/REC-SVG-20010904/DTD/svg10.dtd">
<svg version="1.0" xmlns="http://www.w3.org/2000/svg"
 width="960.000000pt" height="960.000000pt" viewBox="0 0 960.000000 960.000000"
 preserveAspectRatio="xMidYMid meet">

<g transform="translate(0.000000,960.000000) scale(0.100000,-0.100000)"
fill="#000000" stroke="none">
<path d="M5273 8151 c-116 -32 -176 -66 -269 -153 -73 -70 -91 -94 -129 -172
-99 -206 -99 -376 0 -582 38 -78 56 -102 129 -172 95 -90 155 -123 279 -154
156 -39 369 -7 492 74 184 121 295 326 295 543 0 273 -174 520 -425 602 -110
35 -269 41 -372 14z"/>
<path d="M3857 6889 c-115 -10 -268 -43 -376 -81 -124 -43 -302 -138 -404
-213 -89 -66 -473 -426 -519 -487 -76 -99 -110 -230 -90 -340 14 -75 58 -168
106 -224 78 -92 246 -146 382 -125 133 20 173 48 422 294 189 185 239 229 297
259 90 47 167 66 295 74 93 7 103 6 97 -9 -28 -73 -429 -1304 -439 -1347 -7
-30 -12 -109 -12 -175 1 -177 38 -304 131 -449 52 -81 127 -163 203 -220 30
-24 309 -197 620 -386 311 -189 570 -348 576 -354 9 -8 -33 -164 -162 -601
-128 -434 -176 -610 -180 -665 -15 -183 76 -349 233 -422 56 -27 83 -33 156
-36 193 -10 347 77 418 233 10 22 109 355 219 740 182 632 202 709 207 795 7
116 -17 225 -74 340 -63 129 -109 166 -553 445 -217 136 -401 254 -409 261
-11 10 19 99 189 548 112 294 206 533 210 531 4 -3 18 -31 30 -62 181 -454
518 -751 952 -839 127 -25 570 -32 658 -10 216 55 345 269 300 498 -29 150
-124 260 -270 314 -34 12 -103 18 -285 24 -213 6 -246 10 -296 29 -128 51
-205 140 -279 327 -150 378 -362 654 -649 846 -206 138 -309 180 -811 336
-385 120 -448 136 -615 152 -121 11 -148 11 -278 -1z"/>
<path d="M3160 3771 l-124 -270 -446 -3 c-422 -3 -448 -4 -495 -24 -174 -71
-265 -208 -265 -398 0 -190 91 -331 257 -398 l58 -23 565 0 c441 0 577 3 620
14 91 22 210 85 277 146 103 93 141 162 299 541 3 6 -39 40 -93 76 -249 165
-378 304 -487 524 l-42 84 -124 -269z"/>
</g>
</svg>
